HIERARCHY
ROOT Hips
{
	OFFSET -3.958830 18.904000 13.208200
	CHANNELS 6 Xposition Yposition Zposition Zrotation Yrotation Xrotation 
	JOINT LHipJoint
	{
		OFFSET 0.000000 0.000000 0.000000
		CHANNELS 3 Zrotation Yrotation Xrotation
		JOINT LeftUpLeg
		{
			OFFSET 1.800000 -1.400000 0.085000
			CHANNELS 3 Zrotation Yrotation Xrotation
			JOINT LeftLeg
			{
				OFFSET 2.215000 -6.000000 0.000000
				CHANNELS 3 Zrotation Yrotation Xrotation
				JOINT LeftFoot
				{
					OFFSET 2.500000 -6.900000 0.000000
					CHANNELS 3 Zrotation Yrotation Xrotation
					JOINT LeftToeBase
					{
						OFFSET 0.200000 -0.500000 1.950000
						CHANNELS 3 Zrotation Yrotation Xrotation
						End Site
						{
							OFFSET 0.000000 0.000000 0.000000
						}
					}
				}
			}
		}
	}
	JOINT RHipJoint
	{
		OFFSET 0.000000 0.000000 0.000000
		CHANNELS 3 Zrotation Yrotation Xrotation
		JOINT RightUpLeg
		{
			OFFSET -1.800000 -1.400000 0.085000
			CHANNELS 3 Zrotation Yrotation Xrotation
			JOINT RightLeg
			{
				OFFSET -2.215000 -6.000000 0.000000
				CHANNELS 3 Zrotation Yrotation Xrotation
				JOINT RightFoot
				{
					OFFSET -2.500000 -6.900000 0.000000
					CHANNELS 3 Zrotation Yrotation Xrotation
					JOINT RightToeBase
					{
						OFFSET -0.200000 -0.500000 1.950000
						CHANNELS 3 Zrotation Yrotation Xrotation
						End Site
						{
							OFFSET 0.000000 0.000000 0.000000
						}
					}
				}
			}
		}
	}
	JOINT LowerBack
	{
		OFFSET 0.000000 0.000000 0.000000
		CHANNELS 3 Zrotation Yrotation Xrotation
		JOINT Spine
		{
			OFFSET -0.087000 1.940000 -0.288900
			CHANNELS 3 Zrotation Yrotation Xrotation
			JOINT Spine1
			{
				OFFSET 0.000000 1.950000 0.060000
				CHANNELS 3 Zrotation Yrotation Xrotation
				JOINT Neck
				{
					OFFSET 0.000000 0.000000 0.000000
					CHANNELS 3 Zrotation Yrotation Xrotation
					JOINT Neck1
					{
						OFFSET 0.000000 1.600000 0.340000
						CHANNELS 3 Zrotation Yrotation Xrotation
						JOINT Head
						{
							OFFSET 0.000000 1.667000 -0.240000
							CHANNELS 3 Zrotation Yrotation Xrotation
							End Site
							{
								OFFSET 0.000000 0.000000 0.000000
							}
						}
					}
				}
				JOINT LeftShoulder
				{
					OFFSET 0.000000 0.000000 0.000000
					CHANNELS 3 Zrotation Yrotation Xrotation
					JOINT LeftArm
					{
						OFFSET 2.700000 1.550000 -0.730000
						CHANNELS 3 Zrotation Yrotation Xrotation
						JOINT LeftForeArm
						{
							OFFSET 5.450000 0.000000 0.000000
							CHANNELS 3 Zrotation Yrotation Xrotation
							JOINT LeftHand
							{
								OFFSET 3.450000 0.000000 0.000000
								CHANNELS 3 Zrotation Yrotation Xrotation
								JOINT LeftHandIndex1
								{
									OFFSET 0.750000 0.000000 0.000000
									CHANNELS 3 Zrotation Yrotation Xrotation
									End Site
									{
										OFFSET 0.000000 0.000000 0.000000
									}
								}
							}
						}
					}
				}
				JOINT RightShoulder
				{
					OFFSET 0.000000 0.000000 0.000000
					CHANNELS 3 Zrotation Yrotation Xrotation
					JOINT RightArm
					{
						OFFSET -2.700000 1.550000 -0.730000
						CHANNELS 3 Zrotation Yrotation Xrotation
						JOINT RightForeArm
						{
							OFFSET -5.450000 0.000000 0.000000
							CHANNELS 3 Zrotation Yrotation Xrotation
							JOINT RightHand
							{
								OFFSET -3.450000 0.000000 0.000000
								CHANNELS 3 Zrotation Yrotation Xrotation
								JOINT RightHandIndex1
								{
									OFFSET -0.750000 0.000000 0.000000
									CHANNELS 3 Zrotation Yrotation Xrotation
									End Site
									{
										OFFSET 0.000000 0.000000 0.000000
									}
								}
							}
						}
					}
				}
			}
		}
	}
}
MOTION
Frames: 9
Frame Time: 0.016667
-1.826170 17.194170 1.298350 -1.728003 -11.879459 -3.942176 -15.600565 14.809235 4.562047 15.844587 -3.961312 -8.983724 -21.202731 8.021733 8.228108 0.205083 6.391513 2.263366 -0.674120 -0.776070 -0.138850 17.611602 -9.393196 2.087066 -8.842479 -2.759571 -13.832211 4.533621 -4.616631 7.976348 -0.022505 -2.238764 3.306082 -0.560150 0.264040 0.027230 -1.770042 -8.014983 -8.402559 6.475785 -16.635982 21.015734 -6.190870 -13.256409 7.699340 7.262622 2.557436 -20.186860 -8.298750 7.400020 52.664842 -9.072370 11.498920 0.183770 7.855485 -26.045071 2.755385 14.663391 -37.947079 -8.577449 82.875306 -64.659108 -45.126148 -4.485877 1.764456 0.549790 -0.019190 0.108340 -0.333200 -22.546840 17.928225 17.809309 -9.008720 -21.350304 -3.292728 -13.857023 -2.670153 0.628964 3.481360 0.013921 -0.390660 0.222910 0.512960 -0.063500 
-1.756320 17.172830 1.266730 -1.797803 -11.746277 -5.110734 -15.757780 14.994111 4.536956 13.360737 -3.741026 -8.228166 -21.789646 7.932273 8.050618 0.289722 6.344145 2.323260 -0.625370 -0.685110 -0.132110 17.484403 -9.246981 2.030105 -9.443131 -2.733770 -13.813019 3.840938 -4.266903 7.246574 -0.019761 -2.200948 3.325189 -0.514310 0.278680 0.053000 -1.389625 -8.509398 -8.425863 4.051147 -16.256362 22.965867 -4.436652 -13.344578 9.811663 7.273619 2.650325 -19.561369 -7.363122 6.580516 50.125668 -9.182500 11.111510 -0.827060 9.445674 -25.496276 2.410352 10.478878 -35.502979 -7.551183 97.564271 -64.036178 -56.133679 -4.427054 1.137282 0.481890 0.009030 0.112950 -0.296250 -24.236973 17.388047 17.779088 -8.572135 -19.071630 -3.950696 -13.239750 -6.257869 0.692575 3.704444 0.054914 -0.346080 0.212580 0.465880 -0.025010 
-1.692130 17.122060 1.251650 -2.162103 -12.524335 -4.527819 -15.594005 14.806707 4.427701 10.753477 -3.407881 -8.330804 -21.466784 7.481665 7.205459 0.198405 5.934672 2.470534 -0.587380 -0.602520 -0.112200 17.642209 -9.426094 2.158458 -9.593032 -2.617211 -16.207657 3.371448 -3.934959 6.053543 -0.056369 -1.950793 3.438041 -0.481030 0.230550 -0.020830 -1.820566 -7.795751 -8.358724 5.300861 -17.891185 22.518921 -5.713831 -14.537469 9.536971 6.844274 2.972652 -20.421691 -6.381981 7.920670 54.286534 -6.961690 11.856300 -5.244260 7.048644 -24.726413 4.225274 6.908623 -31.277745 -2.672030 110.795820 -59.910085 -69.504568 -4.191017 0.839359 0.606270 -0.074060 0.197200 -0.278900 -21.366293 17.095470 17.352138 -14.299349 -15.720431 -3.562866 -11.448019 -7.446930 0.781499 3.654537 0.238712 -0.386730 0.317590 0.436410 -0.045060 
-1.637780 17.044190 1.223970 -2.228152 -14.295588 -4.236242 -15.567201 14.745376 4.329646 8.254329 -2.825805 -7.950557 -20.632797 6.928580 5.697352 0.205176 5.564688 2.593779 -0.554590 -0.552580 -0.099480 17.689028 -9.411359 2.284698 -9.509083 -2.345108 -18.677956 3.198043 -3.583665 4.746551 -0.062900 -1.766287 3.482755 -0.489020 0.204600 0.026490 -1.895556 -7.538787 -8.384431 5.030719 -17.716320 22.779157 -5.791365 -14.322843 9.604400 6.668505 3.440896 -20.570928 -4.869344 8.132493 55.699575 -5.402380 12.179350 -6.350340 6.307800 -25.219873 4.780449 3.408663 -29.347322 -2.853818 109.877808 -60.011568 -69.327735 -4.214324 0.886178 0.602720 -0.086040 0.242860 -0.279970 -20.466211 17.522980 16.847471 -16.147521 -13.325860 -3.858143 -10.708047 -8.738421 0.850400 3.686817 0.251011 -0.320420 0.281260 0.427010 -0.031180 
-1.570340 16.960150 1.199310 -2.537162 -14.194348 -4.300792 -15.601898 14.755852 4.243840 6.207188 -2.243301 -7.515331 -19.384806 6.481406 4.499066 0.150214 5.299258 2.687467 -0.560170 -0.566730 -0.101690 17.669046 -9.373214 2.373717 -10.015073 -2.407569 -20.277897 3.794383 -3.540672 3.893233 -0.055333 -1.742271 3.467705 -0.498170 0.209970 0.068480 -1.828067 -7.480350 -8.432171 4.762575 -17.293455 23.291595 -5.364226 -13.848608 10.431198 6.692658 4.653213 -20.158956 -1.975677 6.546699 56.326989 -5.648600 11.728090 -6.587240 5.673975 -26.315822 4.665687 -0.688798 -30.322127 -4.142996 105.449369 -59.086247 -63.704292 -4.348441 1.023611 0.599140 -0.064370 0.244100 -0.295520 -20.054640 17.598037 16.817113 -15.686796 -13.203630 -3.972798 -10.603802 -9.286285 0.905457 3.675175 0.230406 -0.303450 0.259760 0.453900 -0.036820 
-1.500470 16.870920 1.161230 -3.218287 -13.734515 -5.254544 -15.739184 14.886166 4.171972 5.044407 -1.554719 -6.226982 -18.080059 6.169946 3.330605 0.122165 5.214489 2.717742 -0.541680 -0.525690 -0.144550 17.571144 -9.210028 2.368324 -10.354956 -2.591642 -20.201186 4.292597 -3.480529 2.892965 -0.054022 -1.855190 3.404747 -0.454850 0.240810 0.144100 -1.525424 -7.862446 -8.461629 3.639423 -16.302536 25.544728 -4.085937 -13.219267 12.018868 6.784904 5.832855 -18.709512 0.807218 4.858150 53.521574 -6.397800 11.231360 -7.316850 5.414511 -27.651115 2.972728 -2.849718 -33.635090 -6.320351 96.959753 -58.840407 -55.371453 -4.618393 1.384979 0.543450 -0.000330 0.222200 -0.282830 -20.005999 17.616449 17.154903 -13.661354 -14.300430 -3.912084 -10.690843 -9.463393 0.827692 3.647019 0.121024 -0.271000 0.208550 0.474270 -0.018120 
-1.445790 16.761110 1.134710 -3.668131 -14.115903 -5.405241 -15.927257 15.068216 4.121236 4.160312 -1.058675 -5.825116 -17.320291 6.076268 2.602281 0.149161 5.163737 2.780119 -0.501620 -0.436230 -0.166550 17.442886 -8.910004 2.338073 -10.296132 -2.420878 -20.768785 4.682849 -3.246974 2.373537 0.034176 -1.907426 3.421328 -0.357790 0.307980 0.118320 -1.089864 -8.571038 -8.466168 2.331801 -15.358716 26.939889 -3.120022 -12.760101 14.365741 7.579883 4.985571 -16.888485 0.259934 5.123273 46.802720 -7.683930 12.120910 -5.557090 4.873392 -26.268551 1.869063 -6.251094 -35.641670 -6.442400 97.442676 -59.497235 -57.213670 -4.740419 1.431934 0.381840 0.096860 0.116650 -0.231680 -20.923969 16.766715 17.058979 -10.905519 -13.898885 -3.444005 -11.230744 -7.746403 0.423240 3.589332 -0.104216 -0.273100 0.193750 0.418710 0.016810 
-1.385320 16.642890 1.108910 -4.332048 -13.429075 -5.140790 -15.972192 15.087531 4.046631 3.457286 -0.795808 -5.870231 -16.631644 6.014223 2.514938 0.147550 5.027207 2.843804 -0.411560 -0.294560 -0.117820 17.428962 -8.805328 2.364600 -10.164553 -2.372820 -21.882382 5.086600 -3.114413 2.110785 0.049512 -1.906387 3.415509 -0.255020 0.308320 0.099880 -1.037171 -8.676390 -8.436391 2.879767 -15.271015 27.414031 -3.227871 -12.739895 15.458764 8.061172 5.016734 -15.739634 1.382593 5.687639 43.876061 -7.629670 13.534160 -6.194530 4.050441 -25.711693 1.778920 -10.216217 -36.549724 -6.095439 96.996079 -62.890431 -60.600860 -4.760776 1.426568 0.311540 0.122000 0.106540 -0.180870 -21.103101 15.799630 15.845819 -8.709648 -11.418769 -4.415422 -12.750712 -9.761783 0.461339 3.723568 -0.319534 -0.264920 0.187030 0.324290 0.036180 
-1.335070 16.554030 1.065190 -4.137739 -14.653654 -5.695702 -16.158321 15.150948 4.087636 3.223456 -0.759710 -5.320560 -17.487542 5.982121 1.629534 0.144313 5.233466 2.803410 -0.391050 -0.281390 -0.100210 17.309257 -8.528965 2.285721 -9.858431 -2.125654 -22.777953 5.360070 -3.046195 2.384139 0.087537 -1.859417 3.425601 -0.204710 0.362600 0.097670 -0.602595 -9.206933 -8.532598 0.624489 -13.213316 29.555245 -1.256469 -11.523798 16.712924 8.792559 4.329142 -15.023216 0.930330 6.034784 40.799912 -7.857560 13.713780 -6.843610 2.426255 -25.112642 2.463123 -14.367732 -36.617236 -7.019208 96.936957 -65.338780 -64.098982 -4.887855 1.443145 0.295920 0.161900 0.064640 -0.167130 -20.947329 16.050018 15.192860 -6.534536 -10.335416 -5.326858 -13.918181 -11.621979 0.590725 3.757912 -0.459293 -0.308620 0.225590 0.326080 0.028200 
